<svg width="16" height="16" viewBox="0 0 16 16" fill="none" xmlns="http://www.w3.org/2000/svg">
<path id="Vector" d="M14.6927 8.31208C14.5622 8.16981 14.4902 7.9869 14.4902 7.79752C14.4902 7.60813 14.5622 7.42523 14.6927 7.28295L15.735 6.16026C15.8499 6.0376 15.9212 5.88326 15.9387 5.71938C15.9563 5.5555 15.9192 5.39051 15.8327 5.24808L14.2041 2.5505C14.1186 2.40823 13.9883 2.29546 13.8318 2.22826C13.6754 2.16107 13.5007 2.14287 13.3328 2.17627L11.802 2.47254C11.6072 2.51107 11.4044 2.48001 11.2319 2.38522C11.0594 2.29042 10.929 2.13845 10.8655 1.95797L10.3688 0.531219C10.3142 0.376365 10.2101 0.241866 10.0713 0.146731C9.93247 0.0515961 9.76594 0.000638371 9.59522 0.00106029H6.33804C6.16047 -0.00781367 5.98474 0.0392055 5.8377 0.134936C5.69067 0.230667 5.5804 0.369848 5.52374 0.531219L5.06773 1.95797C5.00422 2.13845 4.87391 2.29042 4.70139 2.38522C4.52888 2.48001 4.32609 2.51107 4.13129 2.47254L2.5597 2.17627C2.40055 2.15474 2.2383 2.17878 2.09339 2.24538C1.94849 2.31197 1.82741 2.41814 1.7454 2.5505L0.116812 5.24808C0.0281836 5.38892 -0.0116664 5.55298 0.00295878 5.71682C0.0175839 5.88065 0.0859354 6.03586 0.198241 6.16026L1.2324 7.28295C1.36295 7.42523 1.43494 7.60813 1.43494 7.79752C1.43494 7.9869 1.36295 8.16981 1.2324 8.31208L0.198241 9.43477C0.0859354 9.55917 0.0175839 9.71438 0.00295878 9.87822C-0.0116664 10.0421 0.0281836 10.2061 0.116812 10.347L1.7454 13.0445C1.83099 13.1868 1.96129 13.2996 2.11774 13.3668C2.2742 13.434 2.44881 13.4522 2.6167 13.4188L4.14758 13.1225C4.34237 13.084 4.54516 13.115 4.71768 13.2098C4.8902 13.3046 5.02051 13.4566 5.08402 13.6371L5.58074 15.0638C5.6374 15.2252 5.74767 15.3644 5.89471 15.4601C6.04174 15.5558 6.21747 15.6028 6.39504 15.594H9.65222C9.82294 15.5944 9.98947 15.5434 10.1283 15.4483C10.2671 15.3532 10.3712 15.2187 10.4258 15.0638L10.9225 13.6371C10.986 13.4566 11.1164 13.3046 11.2889 13.2098C11.4614 13.115 11.6642 13.084 11.859 13.1225L13.3898 13.4188C13.5577 13.4522 13.7324 13.434 13.8888 13.3668C14.0453 13.2996 14.1756 13.1868 14.2611 13.0445L15.8897 10.347C15.9762 10.2045 16.0133 10.0395 15.9958 9.87566C15.9782 9.71178 15.9069 9.55744 15.792 9.43477L14.6927 8.31208ZM13.4794 9.35681L14.1309 10.0585L13.0886 11.7893L12.1277 11.6022C11.5412 11.4874 10.9311 11.5828 10.4133 11.8702C9.89539 12.1577 9.50577 12.6172 9.31836 13.1615L9.00893 14.0347H6.92433L6.63118 13.1459C6.44378 12.6016 6.05416 12.1421 5.53628 11.8546C5.01841 11.5672 4.40833 11.4718 3.82186 11.5866L2.86099 11.7737L1.80241 10.0507L2.45384 9.34901C2.85444 8.92019 3.07591 8.36505 3.07591 7.78972C3.07591 7.21439 2.85444 6.65925 2.45384 6.23043L1.80241 5.52875L2.8447 3.81353L3.80557 4.00064C4.39205 4.11542 5.00213 4.02004 5.52 3.7326C6.03787 3.44516 6.42749 2.98567 6.6149 2.44135L6.92433 1.56035H9.00893L9.31836 2.44915C9.50577 2.99346 9.89539 3.45295 10.4133 3.7404C10.9311 4.02784 11.5412 4.12322 12.1277 4.00844L13.0886 3.82132L14.1309 5.55214L13.4794 6.25382C13.0833 6.68166 12.8646 7.23359 12.8646 7.80531C12.8646 8.37704 13.0833 8.92897 13.4794 9.35681ZM7.96663 4.67893C7.32242 4.67893 6.69268 4.86184 6.15703 5.20451C5.62139 5.54718 5.20391 6.03424 4.95738 6.60409C4.71085 7.17393 4.64635 7.80098 4.77203 8.40592C4.89771 9.01087 5.20793 9.56655 5.66345 10.0027C6.11898 10.4388 6.69935 10.7358 7.33118 10.8562C7.96302 10.9765 8.61793 10.9148 9.2131 10.6787C9.80827 10.4427 10.317 10.043 10.6749 9.53011C11.0328 9.01726 11.2238 8.41431 11.2238 7.79752C11.2238 6.97042 10.8806 6.17719 10.2698 5.59235C9.65897 5.0075 8.83049 4.67893 7.96663 4.67893ZM7.96663 9.35681C7.64453 9.35681 7.32965 9.26536 7.06183 9.09402C6.79401 8.92268 6.58527 8.67916 6.46201 8.39423C6.33874 8.10931 6.30649 7.79579 6.36933 7.49331C6.43217 7.19084 6.58728 6.913 6.81504 6.69493C7.0428 6.47686 7.33299 6.32835 7.64891 6.26819C7.96482 6.20802 8.29228 6.2389 8.58987 6.35692C8.88745 6.47494 9.1418 6.6748 9.32076 6.93122C9.49971 7.18765 9.59522 7.48912 9.59522 7.79752C9.59522 8.21107 9.42364 8.60768 9.11822 8.9001C8.8128 9.19253 8.39856 9.35681 7.96663 9.35681Z" fill="#333333"/>
</svg>
