<svg width="22" height="20" viewBox="0 0 22 20" fill="none" xmlns="http://www.w3.org/2000/svg">
<g id="fluent:dust-20-regular">
<path id="Vector" d="M6.06417 3.5C6.16804 3.5 6.27089 3.4806 6.36685 3.44291C6.46281 3.40522 6.55001 3.34997 6.62345 3.28033C6.6969 3.21069 6.75516 3.12801 6.79491 3.03701C6.83465 2.94602 6.85511 2.84849 6.85511 2.75C6.85511 2.65151 6.83465 2.55398 6.79491 2.46299C6.75516 2.37199 6.6969 2.28931 6.62345 2.21967C6.55001 2.15003 6.46281 2.09478 6.36685 2.05709C6.27089 2.0194 6.16804 2 6.06417 2C5.8544 2 5.65322 2.07902 5.50489 2.21967C5.35656 2.36032 5.27323 2.55109 5.27323 2.75C5.27323 2.94891 5.35656 3.13968 5.50489 3.28033C5.65322 3.42098 5.8544 3.5 6.06417 3.5ZM12.6553 3.001C11.692 3.00069 10.7576 3.31303 10.0075 3.88609C9.25732 4.45915 8.73661 5.25842 8.5319 6.151C7.90431 5.98309 7.24424 5.95533 6.60344 6.06989C5.96263 6.18445 5.35853 6.43822 4.83851 6.8113C4.31848 7.18438 3.89667 7.66662 3.60616 8.2202C3.31564 8.77379 3.16432 9.38366 3.16406 10.002C3.16384 10.6205 3.31485 11.2305 3.60525 11.7843C3.89564 12.3381 4.3175 12.8205 4.83767 13.1936C5.35785 13.5667 5.96218 13.8203 6.60317 13.9345C7.24417 14.0488 7.90437 14.0205 8.5319 13.852C8.75378 14.8161 9.34353 15.6684 10.1879 16.2452C11.0322 16.822 12.0715 17.0826 13.1061 16.9769C14.1408 16.8713 15.0977 16.4068 15.7932 15.6727C16.4886 14.9386 16.8734 13.9868 16.8737 13C16.8737 12.4325 16.7464 11.8715 16.5002 11.3543C16.254 10.837 15.8946 10.3754 15.4458 10C16.0884 9.46258 16.5432 8.75232 16.7497 7.96375C16.9561 7.17518 16.9044 6.34569 16.6014 5.58567C16.2985 4.82565 15.7586 4.17114 15.0537 3.70924C14.3487 3.24734 13.5122 3.00095 12.6553 3.001ZM9.49474 6.862C9.5201 6.34412 9.68656 5.84132 9.97789 5.40261C10.2692 4.96391 10.6755 4.60428 11.157 4.3588C11.6386 4.11331 12.179 3.99036 12.7256 4.00191C13.2722 4.01347 13.8063 4.15915 14.2759 4.42475C14.7454 4.69034 15.1344 5.06678 15.4048 5.51736C15.6752 5.96795 15.8179 6.47729 15.8188 6.99573C15.8198 7.51416 15.6791 8.02399 15.4104 8.4755C15.1417 8.92701 14.7542 9.30479 14.2857 9.572C14.2078 9.61645 14.1433 9.67927 14.0985 9.75436C14.0537 9.82944 14.0302 9.91424 14.0302 10.0005C14.0302 10.0868 14.0537 10.1716 14.0985 10.2466C14.1433 10.3217 14.2078 10.3845 14.2857 10.429C14.7542 10.6962 15.1417 11.074 15.4104 11.5255C15.6791 11.977 15.8198 12.4868 15.8188 13.0053C15.8179 13.5237 15.6752 14.0331 15.4048 14.4836C15.1344 14.9342 14.7454 15.3107 14.2759 15.5763C13.8063 15.8418 13.2722 15.9875 12.7256 15.9991C12.179 16.0106 11.6386 15.8877 11.157 15.6422C10.6755 15.3967 10.2692 15.0371 9.97789 14.5984C9.68656 14.1597 9.5201 13.6569 9.49474 13.139C9.49064 13.0567 9.46516 12.9767 9.42056 12.906C9.37597 12.8353 9.31365 12.7761 9.23914 12.7338C9.16463 12.6914 9.08024 12.6672 8.99347 12.6632C8.90669 12.6592 8.82023 12.6757 8.74177 12.711C8.25953 12.9281 7.7272 13.026 7.19433 12.9956C6.66146 12.9651 6.14538 12.8073 5.69415 12.5368C5.24292 12.2663 4.8712 11.8919 4.61362 11.4486C4.35603 11.0052 4.22095 10.5072 4.22095 10.001C4.22095 9.4948 4.35603 8.99682 4.61362 8.55344C4.8712 8.11006 5.24292 7.7357 5.69415 7.46521C6.14538 7.19472 6.66146 7.0369 7.19433 7.00644C7.7272 6.97598 8.25953 7.07387 8.74177 7.291C8.82031 7.32638 8.90686 7.34278 8.99372 7.33876C9.08057 7.33474 9.16502 7.31041 9.23956 7.26794C9.31409 7.22548 9.3764 7.16619 9.42092 7.09536C9.46544 7.02454 9.4908 6.94437 9.49474 6.862ZM6.06417 18C6.27394 18 6.47512 17.921 6.62345 17.7803C6.77178 17.6397 6.85511 17.4489 6.85511 17.25C6.85511 17.0511 6.77178 16.8603 6.62345 16.7197C6.47512 16.579 6.27394 16.5 6.06417 16.5C5.8544 16.5 5.65322 16.579 5.50489 16.7197C5.35656 16.8603 5.27323 17.0511 5.27323 17.25C5.27323 17.4489 5.35656 17.6397 5.50489 17.7803C5.65322 17.921 5.8544 18 6.06417 18ZM20.0374 10C20.0374 10.1989 19.9541 10.3897 19.8058 10.5303C19.6574 10.671 19.4563 10.75 19.2465 10.75C19.0367 10.75 18.8355 10.671 18.6872 10.5303C18.5389 10.3897 18.4556 10.1989 18.4556 10C18.4556 9.80109 18.5389 9.61032 18.6872 9.46967C18.8355 9.32902 19.0367 9.25 19.2465 9.25C19.4563 9.25 19.6574 9.32902 19.8058 9.46967C19.9541 9.61032 20.0374 9.80109 20.0374 10Z" fill="#5DDFDE"/>
</g>
</svg>
