<svg width="16" height="17" viewBox="0 0 16 17" fill="none" xmlns="http://www.w3.org/2000/svg">
<g id="Group 34798">
<path id="Vector" d="M13.6 1.66525H12V0.832624C12 0.611798 11.9157 0.400017 11.7657 0.24387C11.6157 0.0877226 11.4122 0 11.2 0C10.9878 0 10.7843 0.0877226 10.6343 0.24387C10.4843 0.400017 10.4 0.611798 10.4 0.832624V1.66525H5.6V0.832624C5.6 0.611798 5.51571 0.400017 5.36569 0.24387C5.21566 0.0877226 5.01217 0 4.8 0C4.58783 0 4.38434 0.0877226 4.23431 0.24387C4.08429 0.400017 4 0.611798 4 0.832624V1.66525H2.4C1.76348 1.66525 1.15303 1.92842 0.702944 2.39686C0.252856 2.8653 0 3.50064 0 4.16312V14.1546C0 14.8171 0.252856 15.4524 0.702944 15.9209C1.15303 16.3893 1.76348 16.6525 2.4 16.6525H13.6C14.2365 16.6525 14.847 16.3893 15.2971 15.9209C15.7471 15.4524 16 14.8171 16 14.1546V4.16312C16 3.50064 15.7471 2.8653 15.2971 2.39686C14.847 1.92842 14.2365 1.66525 13.6 1.66525ZM14.4 14.1546C14.4 14.3754 14.3157 14.5872 14.1657 14.7434C14.0157 14.8995 13.8122 14.9872 13.6 14.9872H2.4C2.18783 14.9872 1.98434 14.8995 1.83431 14.7434C1.68429 14.5872 1.6 14.3754 1.6 14.1546V8.32624H14.4V14.1546ZM14.4 6.66099H1.6V4.16312C1.6 3.9423 1.68429 3.73051 1.83431 3.57437C1.98434 3.41822 2.18783 3.3305 2.4 3.3305H4V4.16312C4 4.38395 4.08429 4.59573 4.23431 4.75187C4.38434 4.90802 4.58783 4.99574 4.8 4.99574C5.01217 4.99574 5.21566 4.90802 5.36569 4.75187C5.51571 4.59573 5.6 4.38395 5.6 4.16312V3.3305H10.4V4.16312C10.4 4.38395 10.4843 4.59573 10.6343 4.75187C10.7843 4.90802 10.9878 4.99574 11.2 4.99574C11.4122 4.99574 11.6157 4.90802 11.7657 4.75187C11.9157 4.59573 12 4.38395 12 4.16312V3.3305H13.6C13.8122 3.3305 14.0157 3.41822 14.1657 3.57437C14.3157 3.73051 14.4 3.9423 14.4 4.16312V6.66099Z" fill="#333333"/>
<circle id="Ellipse 491" cx="6" cy="4.39886" r="1" fill="#333333"/>
<circle id="Ellipse 492" cx="10" cy="4.39886" r="1" fill="#333333"/>
</g>
</svg>
