<svg width="17" height="16" viewBox="0 0 17 16" fill="none" xmlns="http://www.w3.org/2000/svg">
<g id="Group 427319881">
<path id="Vector" d="M11 10.3333C13.5493 10.3333 15.6667 9.67533 15.6667 9V2.33333M6.33333 9C3.388 9 1 8.342 1 7.66667V4.33333M6.33333 3C3.388 3 1 3.59667 1 4.33333M1 4.33333C1 5.07 3.388 5.66667 6.33333 5.66667C6.33333 6.342 8.502 7 11.0513 7C13.6007 7 15.6667 6.342 15.6667 5.66667M15.6667 2.33333C15.6667 1.59667 13.6 1 11.0513 1C8.50267 1 6.436 1.59667 6.436 2.33333M15.6667 2.33333C15.6667 3.07 13.6 3.66667 11.0513 3.66667C8.50267 3.66667 6.436 3.07 6.436 2.33333M6.436 2.33333V9.11067" stroke="white" stroke-width="1.6"/>
<path id="Vector_2" d="M11.0326 10.3333C11.0326 9.59667 8.94322 9 6.36589 9C3.78855 9 1.69922 9.59667 1.69922 10.3333M11.0326 10.3333C11.0326 11.07 8.94322 11.6667 6.36589 11.6667C3.78855 11.6667 1.69922 11.07 1.69922 10.3333M11.0326 10.3333V13.6247C11.0326 14.384 8.94322 15 6.36589 15C3.78855 15 1.69922 14.3847 1.69922 13.6247V10.3333" stroke="#5DDFDE" stroke-width="1.6"/>
</g>
</svg>
