<svg width="24" height="25" viewBox="0 0 24 25" fill="none" xmlns="http://www.w3.org/2000/svg">
<g id="Group 427319776">
<path id="Union (Stroke)" d="M5.89163 8.33662L4.78968 8.68581C3.16995 9.19909 2 10.7155 2 12.5C2 14.3675 3.27976 15.9361 5.01012 16.3766C5.54533 16.5128 6 16.9477 6 17.5C6 18.0523 5.54892 18.5087 5.00419 18.4177C2.16441 17.9434 0 15.4745 0 12.5C0 9.81875 1.75873 7.54827 4.18552 6.77925C4.97271 3.18799 8.17245 0.5 12 0.5C15.8276 0.5 19.0273 3.18799 19.8145 6.77925C22.2413 7.54827 24 9.81875 24 12.5C24 15.4745 21.8356 17.9434 18.9958 18.4177C18.4511 18.5087 18 18.0523 18 17.5C18 16.9477 18.4547 16.5128 18.9899 16.3766C20.7202 15.9361 22 14.3675 22 12.5C22 10.7155 20.83 9.19909 19.2103 8.68581L18.1084 8.33662L17.8609 7.20748C17.2706 4.51452 14.8682 2.5 12 2.5C9.1318 2.5 6.72942 4.51452 6.13913 7.20748L5.89163 8.33662Z" fill="#1E97EE"/>
<path id="Vector 921" d="M12 11.5L9 14M12 11.5L15 14M12 11.5V23.5" stroke="#1E97EE" stroke-width="2" stroke-linecap="round"/>
</g>
</svg>
