<svg width="13" height="12" viewBox="0 0 13 12" fill="none" xmlns="http://www.w3.org/2000/svg">
<g id="Group 34653">
<path id="Union" fill-rule="evenodd" clip-rule="evenodd" d="M1.53101 1.2C1.53101 1.23753 1.51668 1.28078 1.47227 1.32289C1.43263 1.36048 1.37345 1.39129 1.29866 1.39844H1.26545V1.4C1.17492 1.39999 1.10406 1.36587 1.05874 1.32289C1.01433 1.28078 1 1.23753 1 1.2C1 1.16247 1.01433 1.11922 1.05874 1.07711C1.10407 1.03412 1.17495 1 1.2655 1C1.35606 1 1.42694 1.03412 1.47227 1.07711C1.51668 1.11922 1.53101 1.16247 1.53101 1.2ZM1.33065 2.39844C1.30907 2.39948 1.28735 2.4 1.2655 2.4C0.566585 2.4 0 1.86274 0 1.2C0 0.537258 0.566585 0 1.2655 0C1.96442 0 2.53101 0.537258 2.53101 1.2C2.53101 1.2676 2.52511 1.33389 2.51378 1.39844H12.655V2.39844H1.33065Z" fill="#2EC9D6"/>
<path id="Union_2" fill-rule="evenodd" clip-rule="evenodd" d="M1.53101 6.00078C1.53101 6.03831 1.51668 6.08157 1.47227 6.12367C1.43263 6.16126 1.37345 6.19208 1.29866 6.19922H1.26545V6.20078C1.17492 6.20077 1.10406 6.16665 1.05874 6.12367C1.01433 6.08157 1 6.03831 1 6.00078C1 5.96325 1.01433 5.92 1.05874 5.87789C1.10407 5.83491 1.17495 5.80078 1.2655 5.80078C1.35606 5.80078 1.42694 5.83491 1.47227 5.87789C1.51668 5.92 1.53101 5.96325 1.53101 6.00078ZM1.33065 7.19922C1.30907 7.20026 1.28735 7.20078 1.2655 7.20078C0.566585 7.20078 0 6.66352 0 6.00078C0 5.33804 0.566585 4.80078 1.2655 4.80078C1.96442 4.80078 2.53101 5.33804 2.53101 6.00078C2.53101 6.06838 2.52511 6.13467 2.51378 6.19922H12.655V7.19922H1.33065Z" fill="#2EC9D6"/>
<path id="Union_3" fill-rule="evenodd" clip-rule="evenodd" d="M1.53101 10.8016C1.53101 10.8391 1.51668 10.8823 1.47227 10.9245C1.43263 10.962 1.37345 10.9929 1.29866 11H1.26545V11.0016C1.17492 11.0015 1.10406 10.9674 1.05874 10.9245C1.01433 10.8823 1 10.8391 1 10.8016C1 10.764 1.01433 10.7208 1.05874 10.6787C1.10407 10.6357 1.17495 10.6016 1.2655 10.6016C1.35606 10.6016 1.42694 10.6357 1.47227 10.6787C1.51668 10.7208 1.53101 10.764 1.53101 10.8016ZM1.33065 12C1.30907 12.001 1.28735 12.0016 1.2655 12.0016C0.566585 12.0016 0 11.4643 0 10.8016C0 10.1388 0.566585 9.60156 1.2655 9.60156C1.96442 9.60156 2.53101 10.1388 2.53101 10.8016C2.53101 10.8692 2.52511 10.9355 2.51378 11H12.655V12H1.33065Z" fill="#2EC9D6"/>
</g>
</svg>
