<svg width="20" height="20" viewBox="0 0 20 20" fill="none" xmlns="http://www.w3.org/2000/svg">
<g id="mingcute:sunset-line" clip-path="url(#clip0_122_4055)">
<g id="Group">
<path id="Vector" d="M10.0004 8.33342C10.8781 8.33329 11.7404 8.56424 12.5006 9.00303C13.2608 9.44182 13.8921 10.073 14.331 10.8331C14.77 11.5932 15.0011 12.4555 15.0011 13.3332C15.0011 14.211 14.7701 15.0733 14.3312 15.8334H16.667C16.8881 15.8334 17.1 15.9212 17.2563 16.0775C17.4126 16.2338 17.5004 16.4457 17.5004 16.6668C17.5004 16.8878 17.4126 17.0997 17.2563 17.256C17.1 17.4123 16.8881 17.5001 16.667 17.5001H3.33371C3.1127 17.5001 2.90074 17.4123 2.74446 17.256C2.58818 17.0997 2.50038 16.8878 2.50038 16.6668C2.50038 16.4457 2.58818 16.2338 2.74446 16.0775C2.90074 15.9212 3.1127 15.8334 3.33371 15.8334H5.66955C5.23067 15.0733 4.99964 14.211 4.99967 13.3332C4.9997 12.4555 5.2308 11.5932 5.66972 10.8331C6.10865 10.073 6.73994 9.44182 7.50013 9.00303C8.26033 8.56424 9.12264 8.33329 10.0004 8.33342ZM10.0004 10.0001C9.33901 10 8.69258 10.1967 8.14333 10.5651C7.59408 10.9335 7.16683 11.457 6.91594 12.0689C6.66506 12.6809 6.60188 13.3536 6.73445 14.0015C6.86701 14.6495 7.18932 15.2434 7.66038 15.7076L7.79621 15.8326H12.2045C12.712 15.3847 13.0711 14.793 13.2341 14.1361C13.397 13.4791 13.3562 12.7882 13.1169 12.1551C12.8776 11.5219 12.4513 10.9766 11.8946 10.5917C11.3379 10.2068 10.6772 10.0004 10.0004 10.0001ZM17.5004 12.5001C17.7128 12.5003 17.9171 12.5817 18.0715 12.7275C18.226 12.8733 18.3189 13.0725 18.3314 13.2846C18.3438 13.4966 18.2748 13.7054 18.1385 13.8683C18.0022 14.0312 17.8088 14.1358 17.5979 14.1609L17.5004 14.1668H16.667C16.4546 14.1665 16.2504 14.0852 16.0959 13.9394C15.9415 13.7936 15.8485 13.5943 15.8361 13.3823C15.8236 13.1702 15.8926 12.9614 16.0289 12.7986C16.1653 12.6357 16.3586 12.531 16.5695 12.5059L16.667 12.5001H17.5004ZM3.33371 12.5001C3.54611 12.5003 3.75041 12.5817 3.90485 12.7275C4.0593 12.8733 4.15224 13.0725 4.16469 13.2846C4.17714 13.4966 4.10815 13.7054 3.97182 13.8683C3.8355 14.0312 3.64213 14.1358 3.43121 14.1609L3.33371 14.1668H2.50038C2.28798 14.1665 2.08369 14.0852 1.92924 13.9394C1.77479 13.7936 1.68185 13.5943 1.6694 13.3823C1.65695 13.1702 1.72594 12.9614 1.86227 12.7986C1.99859 12.6357 2.19197 12.531 2.40288 12.5059L2.50038 12.5001H3.33371ZM5.28621 7.44092L5.87538 8.03008C6.02718 8.18725 6.11117 8.39776 6.10927 8.61625C6.10738 8.83475 6.01973 9.04376 5.86523 9.19827C5.71072 9.35277 5.50171 9.44041 5.28321 9.44231C5.06472 9.44421 4.85421 9.36022 4.69705 9.20842L4.10788 8.61925C3.95608 8.46208 3.87209 8.25158 3.87398 8.03308C3.87588 7.81459 3.96352 7.60558 4.11803 7.45107C4.27254 7.29656 4.48155 7.20892 4.70004 7.20702C4.91854 7.20512 5.12904 7.28912 5.28621 7.44092ZM14.7145 7.44092C14.8645 7.29146 15.0657 7.20469 15.2774 7.19823C15.489 7.19177 15.6951 7.2661 15.8539 7.40613C16.0127 7.54615 16.1123 7.74138 16.1324 7.95215C16.1525 8.16292 16.0916 8.37342 15.962 8.54092L15.8929 8.61925L15.3037 9.20842C15.1537 9.35787 14.9525 9.44465 14.7409 9.45111C14.5293 9.45757 14.3231 9.38324 14.1643 9.24321C14.0055 9.10318 13.906 8.90796 13.8859 8.69719C13.8658 8.48642 13.9267 8.27591 14.0562 8.10842L14.1254 8.03008L14.7145 7.44092ZM10.0004 1.56592C10.2046 1.56597 10.4017 1.64102 10.5543 1.77683C10.7068 1.91263 10.8042 2.09972 10.8279 2.30258L10.8337 2.40008V4.65508L11.1787 4.30925C11.3283 4.15821 11.53 4.07006 11.7425 4.06285C11.955 4.05564 12.1622 4.12992 12.3217 4.27047C12.4812 4.41103 12.581 4.60724 12.6005 4.81894C12.6201 5.03064 12.5581 5.24182 12.427 5.40925L12.357 5.48842L10.5904 7.25592C10.4469 7.3994 10.256 7.48559 10.0534 7.49833C9.85092 7.51106 9.65071 7.44946 9.49038 7.32508L9.41121 7.25592L7.64371 5.48842C7.49267 5.3388 7.40452 5.13711 7.39731 4.92463C7.3901 4.71215 7.46438 4.50495 7.60493 4.34543C7.74549 4.18592 7.9417 4.08617 8.1534 4.06658C8.3651 4.047 8.57628 4.10907 8.74371 4.24008L8.82205 4.30925L9.16705 4.65508V2.40008C9.16705 2.17907 9.25484 1.96711 9.41112 1.81083C9.5674 1.65455 9.77936 1.56675 10.0004 1.56675V1.56592Z" fill="#4D4D4D"/>
</g>
</g>
<defs>
<clipPath id="clip0_122_4055">
<rect width="20" height="20" fill="white"/>
</clipPath>
</defs>
</svg>
