<svg width="20" height="20" viewBox="0 0 20 20" fill="none" xmlns="http://www.w3.org/2000/svg">
<g id="mingcute:sunrise-line" clip-path="url(#clip0_122_4048)">
<g id="Group">
<path id="Vector" d="M10.0003 8.33331C10.8781 8.33319 11.7404 8.56413 12.5006 9.00292C13.2608 9.44171 13.8921 10.0729 14.331 10.833C14.7699 11.5931 15.001 12.4554 15.001 13.3331C15.0011 14.2109 14.77 15.0732 14.3312 15.8333H16.667C16.888 15.8333 17.1 15.9211 17.2562 16.0774C17.4125 16.2337 17.5003 16.4456 17.5003 16.6666C17.5003 16.8877 17.4125 17.0996 17.2562 17.2559C17.1 17.4122 16.888 17.5 16.667 17.5H3.33366C3.11265 17.5 2.90068 17.4122 2.7444 17.2559C2.58812 17.0996 2.50033 16.8877 2.50033 16.6666C2.50033 16.4456 2.58812 16.2337 2.7444 16.0774C2.90068 15.9211 3.11265 15.8333 3.33366 15.8333H5.66949C5.23062 15.0732 4.99959 14.2109 4.99962 13.3331C4.99965 12.4554 5.23074 11.5931 5.66967 10.833C6.10859 10.0729 6.73988 9.44171 7.50008 9.00292C8.26027 8.56413 9.12258 8.33319 10.0003 8.33331ZM10.0003 9.99998C9.33896 9.99993 8.69253 10.1966 8.14328 10.565C7.59402 10.9334 7.16677 11.4569 6.91589 12.0688C6.66501 12.6808 6.60183 13.3535 6.73439 14.0014C6.86695 14.6494 7.18927 15.2433 7.66033 15.7075L7.79616 15.8325H12.2045C12.7119 15.3846 13.071 14.7929 13.234 14.136C13.397 13.479 13.3561 12.7881 13.1169 12.1549C12.8776 11.5218 12.4513 10.9765 11.8946 10.5916C11.3379 10.2066 10.6772 10.0003 10.0003 9.99998ZM17.5003 12.5C17.7213 12.5 17.9333 12.5878 18.0896 12.7441C18.2459 12.9003 18.3337 13.1123 18.3337 13.3333C18.3337 13.5543 18.2459 13.7663 18.0896 13.9226C17.9333 14.0788 17.7213 14.1666 17.5003 14.1666H16.667C16.446 14.1666 16.234 14.0788 16.0777 13.9226C15.9215 13.7663 15.8337 13.5543 15.8337 13.3333C15.8337 13.1123 15.9215 12.9003 16.0777 12.7441C16.234 12.5878 16.446 12.5 16.667 12.5H17.5003ZM3.33366 12.5C3.55467 12.5 3.76663 12.5878 3.92291 12.7441C4.07919 12.9003 4.16699 13.1123 4.16699 13.3333C4.16699 13.5543 4.07919 13.7663 3.92291 13.9226C3.76663 14.0788 3.55467 14.1666 3.33366 14.1666H2.50033C2.27931 14.1666 2.06735 14.0788 1.91107 13.9226C1.75479 13.7663 1.66699 13.5543 1.66699 13.3333C1.66699 13.1123 1.75479 12.9003 1.91107 12.7441C2.06735 12.5878 2.27931 12.5 2.50033 12.5H3.33366ZM4.10783 7.44081C4.25132 7.29733 4.44224 7.21114 4.64476 7.1984C4.84728 7.18567 5.04749 7.24727 5.20783 7.37165L5.28616 7.44081L5.87533 8.02998C6.02478 8.17994 6.11155 8.38117 6.11802 8.5928C6.12448 8.80442 6.05015 9.01057 5.91012 9.16938C5.77009 9.32818 5.57487 9.42773 5.3641 9.44781C5.15333 9.46789 4.94282 9.40699 4.77533 9.27748L4.69699 9.20831L4.10783 8.61915C3.9516 8.46287 3.86384 8.25095 3.86384 8.02998C3.86384 7.80901 3.9516 7.59709 4.10783 7.44081ZM15.8928 7.44081C16.0491 7.59709 16.1368 7.80901 16.1368 8.02998C16.1368 8.25095 16.0491 8.46287 15.8928 8.61915L15.3037 9.20831C15.1465 9.36011 14.936 9.44411 14.7175 9.44221C14.499 9.44031 14.29 9.35267 14.1355 9.19816C13.981 9.04365 13.8933 8.83464 13.8914 8.61615C13.8895 8.39765 13.9735 8.18715 14.1253 8.02998L14.7145 7.44081C14.8708 7.28459 15.0827 7.19682 15.3037 7.19682C15.5246 7.19682 15.7366 7.28459 15.8928 7.44081ZM10.5895 1.81081L12.357 3.57831C12.4366 3.65518 12.5001 3.74714 12.5437 3.84881C12.5874 3.95048 12.6104 4.05983 12.6114 4.17048C12.6123 4.28113 12.5912 4.39086 12.5493 4.49327C12.5074 4.59569 12.4456 4.68873 12.3673 4.76697C12.2891 4.84522 12.196 4.9071 12.0936 4.949C11.9912 4.9909 11.8815 5.01198 11.7708 5.01102C11.6602 5.01006 11.5508 4.98707 11.4492 4.9434C11.3475 4.89972 11.2555 4.83624 11.1787 4.75665L10.8337 4.41165V6.66665C10.8337 6.88766 10.7459 7.09962 10.5896 7.2559C10.4333 7.41218 10.2213 7.49998 10.0003 7.49998C9.77931 7.49998 9.56735 7.41218 9.41107 7.2559C9.25479 7.09962 9.16699 6.88766 9.16699 6.66665V4.41165L8.82199 4.75665C8.66482 4.90844 8.45432 4.99244 8.23582 4.99054C8.01733 4.98864 7.80832 4.901 7.65381 4.74649C7.4993 4.59199 7.41166 4.38298 7.40976 4.16448C7.40787 3.94598 7.49186 3.73548 7.64366 3.57831L9.41033 1.81081C9.48772 1.73333 9.57963 1.67187 9.68079 1.62993C9.78196 1.58799 9.8904 1.56641 9.99991 1.56641C10.1094 1.56641 10.2179 1.58799 10.319 1.62993C10.4202 1.67187 10.5121 1.73333 10.5895 1.81081Z" fill="#4D4D4D"/>
</g>
</g>
<defs>
<clipPath id="clip0_122_4048">
<rect width="20" height="20" fill="white"/>
</clipPath>
</defs>
</svg>
