<svg width="18" height="17" viewBox="0 0 18 17" fill="none" xmlns="http://www.w3.org/2000/svg">
<g id="powerplant_icon01 2" clip-path="url(#clip0_71_4531)">
<path id="Vector" d="M17.0065 8.27939C17.0065 12.2567 13.4818 15.5854 8.99936 15.5854C4.51696 15.5854 0.992188 12.2567 0.992188 8.27939C0.992188 4.30209 4.51696 0.973389 8.99936 0.973389C13.4818 0.973389 17.0065 4.30209 17.0065 8.27939Z" stroke="#333333" stroke-width="1.5" stroke-miterlimit="10"/>
<path id="Ellipse 461" d="M11.25 5.97955C11.25 7.03183 10.3028 7.98935 9 7.98935C7.6972 7.98935 6.75 7.03183 6.75 5.97955C6.75 4.92727 7.6972 3.96976 9 3.96976C10.3028 3.96976 11.25 4.92727 11.25 5.97955Z" stroke="#333333" stroke-width="1.5"/>
<path id="Vector 228" d="M2.5 13.339C3 12.1891 5.4 9.88927 9 9.88927C10.5 9.81261 13.7 10.3952 15.5 13.339" stroke="#333333" stroke-width="1.5"/>
</g>
<defs>
<clipPath id="clip0_71_4531">
<rect width="18" height="16.5588" fill="white"/>
</clipPath>
</defs>
</svg>
